<?xml version="1.0" encoding="UTF-8"?>
<svg width="512px" height="300px" viewBox="0 0 512 300" version="1.1" xmlns="http://www.w3.org/2000/svg" xmlns:xlink="http://www.w3.org/1999/xlink">
    <title>Cloud</title>
    <defs>
        <filter x="-50%" y="-50%" width="200%" height="200%" filterUnits="objectBoundingBox" id="filter-1">
            <feGaussianBlur stdDeviation="10" in="SourceGraphic"></feGaussianBlur>
        </filter>
    </defs>
    <g id="Page-1" stroke="none" stroke-width="1" fill="none" fill-rule="evenodd">
        <g id="Cloud" fill="#FFFFFF">
            <path d="M409.338,141.654 C409.444,138.841 409.5,136.011 409.5,133.167 C409.5,69.9 358.182,18.667 294.833,18.667 C250.424,18.667 211.576,42.571 190.436,78.667 C176.668,69.656 159.91,64.667 142,64.667 C83.971,64.667 37,111.571 37,169.519 C37,170.577 37.023,171.628 37.068,172.676 C15.304,187.713 2,212.502 2,240.167 C2,287.367 40.156,325.667 87.167,325.667 L394.833,325.667 C449.841,325.667 494.5,281.042 494.5,226.077 C494.5,180.792 457.83,143.128 409.338,141.654 Z" id="Combined-Shape" filter="url(#filter-1)"></path>
            <path d="M409.338,125.654 C409.444,122.841 409.5,120.011 409.5,117.167 C409.5,53.9 358.182,2.667 294.833,2.667 C250.424,2.667 211.576,26.571 190.436,62.667 C176.668,53.656 159.91,48.667 142,48.667 C83.971,48.667 37,95.571 37,153.519 C37,154.577 37.023,155.628 37.068,156.676 C15.304,171.713 2,196.502 2,224.167 C2,271.367 40.156,309.667 87.167,309.667 L394.833,309.667 C449.841,309.667 494.5,265.042 494.5,210.077 C494.5,164.792 457.83,127.128 409.338,125.654 Z" id="Combined-Shape"></path>
        </g>
    </g>
</svg>
